#!OML:ASF E:\Steps\Project 1\Capture day 1\Session 2\Subject.ASF
:FULLY-SPECIFIED
:DEGREES
380
root 11.6201 16.311 12.222 29.7585 -179.957 359.831
lowerback -22.991 -0.798287 -7.54693
upperback -3.56567 0.161174 -2.4381
thorax 8.84401 -0.497458 1.61441
lowerneck 1.35353 0.278741 -3.48591
upperneck 8.65063 -0.527113 6.76379
head 2.57107 -0.385511 2.80604
rclavicle 1.5704e-014 -1.43125e-014
rhumerus -35.6 -5.69298 -88.0326
rradius 35.7292
rwrist -1.8644
rhand -10.8488 -49.7375
rfingers 7.12502
rthumb 15.1662 -79.1617
lclavicle 1.5704e-014 -1.43125e-014
lhumerus -32.9588 -20.1142 89.8015
lradius 39.5535
lwrist -0.682377
lhand -22.8597 -16.4475
lfingers 7.12502
lthumb 3.57861 13.5022
rfemur -41.2133 14.0806 15.2772
rtibia 18.3667
rfoot -16.9504 -9.16818
rtoes -28.0491
lfemur -37.6887 -12.7297 -15.0798
ltibia 24.15
lfoot 163.347 196.215
ltoes -45.4166
381
root 11.6132 16.3174 12.175 28.7365 -180.491 359.903
lowerback -22.6155 -1.54238 -6.93235
upperback -3.28388 0.7443 -2.45824
thorax 9.00914 0.522837 1.53004
lowerneck 1.37145 0.273689 -3.40311
upperneck 8.64813 -0.534735 6.73684
head 2.56633 -0.388316 2.78101
rclavicle 2.98177e-015 -4.77083e-014
rhumerus -35.2867 -7.1705 -86.9516
rradius 33.1357
rwrist -0.320193
rhand -11.3983 -49.8036
rfingers 7.12502
rthumb 14.6367 -79.267
lclavicle 2.98177e-015 -4.77083e-014
lhumerus -32.6336 -19.2778 89.266
lradius 37.2138
lwrist -0.782766
lhand -24.1674 -16.3242
lfingers 7.12502
lthumb 2.31567 13.6429
rfemur -39.5328 14.4044 15.5676
rtibia 17.5503
rfoot -16.7676 -8.96443
rtoes -29.413
lfemur -35.8581 -12.7981 -15.466
ltibia 23.3345
lfoot 163.358 196.634
ltoes -44.8951
382
root 11.6344 16.3111 12.2139 29.5148 -180.048 359.659
lowerback -22.7889 -0.828233 -7.61612
upperback -3.49059 0.140562 -2.3979
thorax 8.8225 -0.501747 1.69385
lowerneck 1.26082 0.301273 -3.43309
upperneck 8.65447 -0.488071 6.71518
head 2.58599 -0.362369 2.78094
rclavicle 1.55052e-014 -5.40694e-014
rhumerus -34.8583 -8.4739 -85.8317
rradius 30.719
rwrist 1.35806
rhand -11.1474 -50.2596
rfingers 7.12502
rthumb 14.8784 -79.7053
lclavicle 1.55052e-014 -5.40694e-014
lhumerus -31.912 -18.0674 88.6702
lradius 34.4896
lwrist -1.01144
lhand -25.5275 -16.3229
lfingers 7.12502
lthumb 1.00209 13.6544
rfemur -40.5264 14.1863 15.1662
rtibia 17.5477
rfoot -16.7055 -9.40028
rtoes -29.3832
lfemur -37.2523 -12.4982 -15.4236
ltibia 23.9719
lfoot 163.367 196.004
ltoes -45.2114
383
root 11.6212 16.3182 12.1628 28.3767 -180.566 359.891
lowerback -22.5195 -1.47239 -6.80972
upperback -3.0218 0.743589 -2.34897
thorax 9.24767 0.487623 1.57632
lowerneck 1.13723 0.305351 -3.45499
upperneck 8.6464 -0.472798 6.71677
head 2.60528 -0.350633 2.78677
rclavicle 3.97569e-015 -1.35174e-014
rhumerus -34.5873 -9.73037 -84.6857
rradius 28.5349
rwrist 3.14406
rhand -11.2707 -50.2573
rfingers 7.12502
rthumb 14.7597 -79.7118
lclavicle 3.97569e-015 -1.35174e-014
lhumerus -31.0104 -16.6287 88.0224
lradius 31.6652
lwrist -1.38417
lhand -26.2144 -15.4722
lfingers 7.12502
lthumb 0.338665 14.5073
rfemur -38.705 14.2381 15.7826
rtibia 16.7993
rfoot -16.6793 -8.71877
rtoes -29.2989
lfemur -35.3201 -12.5662 -15.6476
ltibia 23.256
lfoot 163.187 196.466
ltoes -44.8152
384
root 11.648 16.3075 12.2253 29.6995 -179.9 359.575
lowerback -23.0213 -0.875309 -7.56806
upperback -3.41404 0.0991605 -2.31502
thorax 9.03608 -0.524207 1.74243
lowerneck 1.13177 0.307516 -3.43882
upperneck 8.62498 -0.467358 6.71954
head 2.59867 -0.3467 2.78453
rclavicle 4.77083e-015 3.97569e-015
rhumerus -34.5156 -11.1915 -83.5285
rradius 26.4627
rwrist 5.15959
rhand -11.7371 -50.583
rfingers 7.12502
rthumb 14.3103 -80.0698
lclavicle 4.77083e-015 3.97569e-015
lhumerus -30.2272 -15.1235 87.2768
lradius 28.9288
lwrist -1.91966
lhand -26.5304 -14.3218
lfingers 7.12502
lthumb 0.0334569 15.6579
rfemur -40.4858 13.6437 15.3255
rtibia 17.0539
rfoot -16.4934 -9.04164
rtoes -29.6731
lfemur -37.6374 -12.149 -15.5008
ltibia 24.272
lfoot 163.176 195.607
ltoes -45.3145
385
root 11.6541 16.3164 12.2285 29.5198 -179.769 359.52
lowerback -22.887 -0.891393 -7.52982
upperback -3.30687 0.086584 -2.32403
thorax 9.08762 -0.522406 1.70785
lowerneck 1.12154 0.326364 -3.42584
upperneck 8.61533 -0.438835 6.70782
head 2.59538 -0.331604 2.77852
rclavicle -1.37161e-014 6.20208e-014
rhumerus -34.3281 -12.8181 -82.3828
rradius 24.3255
rwrist 7.47804
rhand -12.2051 -51.3243
rfingers 7.12502
rthumb 13.8594 -80.8425
lclavicle -1.37161e-014 6.20208e-014
lhumerus -29.4745 -13.4077 86.371
lradius 26.2501
lwrist -2.69553
lhand -26.6764 -13.4345
lfingers 7.12502
lthumb -0.107573 16.5452
rfemur -40.095 13.4292 15.4625
rtibia 16.7866
rfoot -16.5564 -8.83469
rtoes -30.4548
lfemur -37.462 -12.0016 -15.6295
ltibia 24.3282
lfoot 163.122 195.336
ltoes -45.4403
386
root 11.6566 16.314 12.2294 29.6782 -179.799 359.551
lowerback -22.9111 -0.794841 -7.38711
upperback -3.42852 0.156265 -2.35683
thorax 8.95896 -0.486477 1.61266
lowerneck 1.06438 0.305996 -3.34789
upperneck 8.64951 -0.466442 6.68277
head 2.61801 -0.342306 2.75592
rclavicle 1.53064e-014 -1.04958e-013
rhumerus -34.4488 -14.808 -80.9684
rradius 22.1174
rwrist 10.5264
rhand -12.8477 -51.1598
rfingers 7.12502
rthumb 13.24 -80.7193
lclavicle 1.53064e-014 -1.04958e-013
lhumerus -29.0225 -11.3617 85.3807
lradius 23.6945
lwrist -3.89575
lhand -27.1596 -13.2817
lfingers 7.12502
lthumb -0.574197 16.6973
rfemur -40.2077 13.4335 15.4392
rtibia 16.6719
rfoot -16.7294 -8.732
rtoes -30.7929
lfemur -37.6738 -11.8191 -15.6006
ltibia 24.3904
lfoot 163.208 195.251
ltoes -45.7505
387
root 11.6624 16.3119 12.2394 29.9822 -179.799 359.532
lowerback -23.0163 -0.724161 -7.3143
upperback -3.57919 0.205931 -2.40038
thorax 8.84168 -0.466559 1.53818
lowerneck 1.08215 0.272397 -3.22337
upperneck 8.65537 -0.51572 6.66473
head 2.61826 -0.36466 2.72562
rclavicle 6.36111e-015 -4.77083e-014
rhumerus -34.8172 -17.1535 -79.2832
rradius 20.0928
rwrist 14.1452
rhand -13.0575 -50.6007
rfingers 7.12502
rthumb 13.0378 -80.1733
lclavicle 6.36111e-015 -4.77083e-014
lhumerus -28.5583 -8.9033 84.1794
lradius 21.1582
lwrist -5.76455
lhand -28.3116 -14.7018
lfingers 7.12502
lthumb -1.68686 15.2712
rfemur -40.5483 13.4491 15.3061
rtibia 16.5994
rfoot -16.6551 -8.88792
rtoes -31.2294
lfemur -38.1224 -11.7206 -15.5341
ltibia 24.5046
lfoot 163.317 195.14
ltoes -45.605
388
root 11.6605 16.3127 12.2253 29.7379 -180.055 359.592
lowerback -22.9705 -0.59338 -7.11519
upperback -3.51612 0.345647 -2.44482
thorax 8.88087 -0.390236 1.41831
lowerneck 1.10188 0.28253 -3.23151
upperneck 8.65325 -0.502434 6.66033
head 2.61318 -0.359039 2.72566
rclavicle -3.97569e-015 -9.54166e-015
rhumerus -35.3251 -19.0729 -77.6844
rradius 18.5162
rwrist 17.4957
rhand -13.5089 -50.0831
rfingers 7.12502
rthumb 12.6026 -79.6829
lclavicle -3.97569e-015 -9.54166e-015
lhumerus -28.1039 -5.87285 82.7622
lradius 18.594
lwrist -8.08584
lhand -27.7927 -13.0364
lfingers 7.12502
lthumb -1.1857 16.94
rfemur -40.1084 13.5092 15.4313
rtibia 16.3684
rfoot -16.6203 -8.6537
rtoes -31.2819
lfemur -37.6462 -11.6516 -15.6304
ltibia 24.2865
lfoot 163.347 195.258
ltoes -45.2237
389
root 11.6589 16.3166 12.2111 29.4172 -180.255 359.629
lowerback -22.8922 -1.54111 -6.53817
upperback -3.44908 0.686522 -2.38013
thorax 8.97923 0.523357 1.37859
lowerneck 1.11586 0.31943 -3.37226
upperneck 8.66321 -0.451084 6.67043
head 2.61232 -0.33748 2.75626
rclavicle 4.96962e-015 -1.03368e-014
rhumerus -35.8416 -20.8167 -76.0614
rradius 17.2058
rwrist 20.7973
rhand -13.8171 -50.0734
rfingers 7.12502
rthumb 12.3054 -79.6913
lclavicle 4.96962e-015 -1.03368e-014
lhumerus -27.6638 -2.46751 81.2599
lradius 16.1643
lwrist -10.577
lhand -27.5949 -12.1179
lfingers 7.12502
lthumb -0.994702 17.8595
rfemur -39.514 13.5571 15.5534
rtibia 16.0042
rfoot -16.6974 -8.31801
rtoes -30.596
lfemur -37.0901 -11.6192 -15.7539
ltibia 24.0607
lfoot 163.408 195.406
ltoes -44.9645
390
root 11.6644 16.3143 12.2248 29.8104 -180.068 359.528
lowerback -23.0853 -0.555453 -6.96278
upperback -3.54118 0.360816 -2.42585
thorax 8.91454 -0.381041 1.3566
lowerneck 1.12958 0.311952 -3.42683
upperneck 8.67301 -0.462748 6.6869
head 2.61444 -0.344875 2.77192
rclavicle -8.54774e-015 2.06736e-014
rhumerus -36.568 -23.1337 -74.0746
rradius 15.9559
rwrist 24.5873
rhand -13.2874 -50.6024
rfingers 7.12502
rthumb 12.8162 -80.189
lclavicle -8.54774e-015 2.06736e-014
lhumerus -27.441 1.14761 79.559
lradius 14.0671
lwrist -13.4935
lhand -27.1752 -11.3288
lfingers 7.12502
lthumb -0.58926 18.6501
rfemur -39.944 13.5503 15.2791
rtibia 15.8896
rfoot -16.7699 -8.56154
rtoes -30.3394
lfemur -37.7506 -11.7137 -15.6586
ltibia 24.2889
lfoot 163.403 195.272
ltoes -44.5723
391
root 11.6634 16.3225 12.2082 29.3074 -180.087 359.561
lowerback -22.7207 -0.464075 -6.75601
upperback -3.41844 0.444299 -2.47062
thorax 8.85752 -0.319388 1.21803
lowerneck 1.11696 0.276611 -3.34653
upperneck 8.68058 -0.512704 6.68105
head 2.62145 -0.367568 2.7543
rclavicle 9.34288e-015 -4.69132e-014
rhumerus -37.4777 -25.765 -71.8881
rradius 14.7892
rwrist 28.9008
rhand -13.0709 -50.7547
rfingers 7.12502
rthumb 13.0248 -80.3281
lclavicle 9.34288e-015 -4.69132e-014
lhumerus -27.4756 5.73736 77.2397
lradius 12.067
lwrist -17.6575
lhand -26.8833 -10.5917
lfingers 7.12502
lthumb -0.307345 19.3878
rfemur -39.1482 13.7474 15.4242
rtibia 15.6132
rfoot -16.9639 -8.66705
rtoes -31.028
lfemur -36.9609 -11.9024 -15.7168
ltibia 23.9703
lfoot 163.292 195.237
ltoes -43.9396
